<?xml version="1.0" encoding="utf-8" standalone="no"?>
<!DOCTYPE svg PUBLIC "-//W3C//DTD SVG 1.1//EN"
  "http://www.w3.org/Graphics/SVG/1.1/DTD/svg11.dtd">
<svg xmlns:xlink="http://www.w3.org/1999/xlink" width="310.078125pt" height="86.518125pt" viewBox="0 0 310.078125 86.518125" xmlns="http://www.w3.org/2000/svg" version="1.1">
 <metadata>
  <rdf:RDF xmlns:dc="http://purl.org/dc/elements/1.1/" xmlns:cc="http://creativecommons.org/ns#" xmlns:rdf="http://www.w3.org/1999/02/22-rdf-syntax-ns#">
   <cc:Work>
    <dc:type rdf:resource="http://purl.org/dc/dcmitype/StillImage"/>
    <dc:date>2023-11-06T08:40:18.826445</dc:date>
    <dc:format>image/svg+xml</dc:format>
    <dc:creator>
     <cc:Agent>
      <dc:title>Matplotlib v3.7.1, https://matplotlib.org/</dc:title>
     </cc:Agent>
    </dc:creator>
   </cc:Work>
  </rdf:RDF>
 </metadata>
 <defs>
  <style type="text/css">*{stroke-linejoin: round; stroke-linecap: butt}</style>
 </defs>
 <g id="figure_1">
  <g id="patch_1">
   <path d="M 0 86.518125 
L 310.078125 86.518125 
L 310.078125 0 
L 0 0 
z
" style="fill: #ffffff"/>
  </g>
  <g id="axes_1">
   <g id="patch_2">
    <path d="M 23.878125 62.64 
L 302.878125 62.64 
L 302.878125 7.2 
L 23.878125 7.2 
z
" style="fill: #ffffff"/>
   </g>
   <g id="QuadMesh_1">
    <path d="M 23.878125 7.2 
L 51.778125 7.2 
L 51.778125 34.92 
L 23.878125 34.92 
L 23.878125 7.2 
" clip-path="url(#p04241be49b)" style="stroke: #000000; stroke-width: 0.1"/>
    <path d="M 51.778125 7.2 
L 79.678125 7.2 
L 79.678125 34.92 
L 51.778125 34.92 
L 51.778125 7.2 
" clip-path="url(#p04241be49b)" style="stroke: #000000; stroke-width: 0.1"/>
    <path d="M 79.678125 7.2 
L 107.578125 7.2 
L 107.578125 34.92 
L 79.678125 34.92 
L 79.678125 7.2 
" clip-path="url(#p04241be49b)" style="stroke: #000000; stroke-width: 0.1"/>
    <path d="M 107.578125 7.2 
L 135.478125 7.2 
L 135.478125 34.92 
L 107.578125 34.92 
L 107.578125 7.2 
" clip-path="url(#p04241be49b)" style="stroke: #000000; stroke-width: 0.1"/>
    <path d="M 135.478125 7.2 
L 163.378125 7.2 
L 163.378125 34.92 
L 135.478125 34.92 
L 135.478125 7.2 
" clip-path="url(#p04241be49b)" style="stroke: #000000; stroke-width: 0.1"/>
    <path d="M 163.378125 7.2 
L 191.278125 7.2 
L 191.278125 34.92 
L 163.378125 34.92 
L 163.378125 7.2 
" clip-path="url(#p04241be49b)" style="stroke: #000000; stroke-width: 0.1"/>
    <path d="M 191.278125 7.2 
L 219.178125 7.2 
L 219.178125 34.92 
L 191.278125 34.92 
L 191.278125 7.2 
" clip-path="url(#p04241be49b)" style="stroke: #000000; stroke-width: 0.1"/>
    <path d="M 219.178125 7.2 
L 247.078125 7.2 
L 247.078125 34.92 
L 219.178125 34.92 
L 219.178125 7.2 
" clip-path="url(#p04241be49b)" style="stroke: #000000; stroke-width: 0.1"/>
    <path d="M 247.078125 7.2 
L 274.978125 7.2 
L 274.978125 34.92 
L 247.078125 34.92 
L 247.078125 7.2 
" clip-path="url(#p04241be49b)" style="stroke: #000000; stroke-width: 0.1"/>
    <path d="M 274.978125 7.2 
L 302.878125 7.2 
L 302.878125 34.92 
L 274.978125 34.92 
L 274.978125 7.2 
" clip-path="url(#p04241be49b)" style="stroke: #000000; stroke-width: 0.1"/>
    <path d="M 23.878125 34.92 
L 51.778125 34.92 
L 51.778125 62.64 
L 23.878125 62.64 
L 23.878125 34.92 
" clip-path="url(#p04241be49b)" style="fill: #ffffff; stroke: #000000; stroke-width: 0.1"/>
    <path d="M 51.778125 34.92 
L 79.678125 34.92 
L 79.678125 62.64 
L 51.778125 62.64 
L 51.778125 34.92 
" clip-path="url(#p04241be49b)" style="fill: #ffffff; stroke: #000000; stroke-width: 0.1"/>
    <path d="M 79.678125 34.92 
L 107.578125 34.92 
L 107.578125 62.64 
L 79.678125 62.64 
L 79.678125 34.92 
" clip-path="url(#p04241be49b)" style="fill: #ffffff; stroke: #000000; stroke-width: 0.1"/>
    <path d="M 107.578125 34.92 
L 135.478125 34.92 
L 135.478125 62.64 
L 107.578125 62.64 
L 107.578125 34.92 
" clip-path="url(#p04241be49b)" style="fill: #ffffff; stroke: #000000; stroke-width: 0.1"/>
    <path d="M 135.478125 34.92 
L 163.378125 34.92 
L 163.378125 62.64 
L 135.478125 62.64 
L 135.478125 34.92 
" clip-path="url(#p04241be49b)" style="fill: #ffffff; stroke: #000000; stroke-width: 0.1"/>
    <path d="M 163.378125 34.92 
L 191.278125 34.92 
L 191.278125 62.64 
L 163.378125 62.64 
L 163.378125 34.92 
" clip-path="url(#p04241be49b)" style="fill: #ffffff; stroke: #000000; stroke-width: 0.1"/>
    <path d="M 191.278125 34.92 
L 219.178125 34.92 
L 219.178125 62.64 
L 191.278125 62.64 
L 191.278125 34.92 
" clip-path="url(#p04241be49b)" style="fill: #ffffff; stroke: #000000; stroke-width: 0.1"/>
    <path d="M 219.178125 34.92 
L 247.078125 34.92 
L 247.078125 62.64 
L 219.178125 62.64 
L 219.178125 34.92 
" clip-path="url(#p04241be49b)" style="fill: #ffffff; stroke: #000000; stroke-width: 0.1"/>
    <path d="M 247.078125 34.92 
L 274.978125 34.92 
L 274.978125 62.64 
L 247.078125 62.64 
L 247.078125 34.92 
" clip-path="url(#p04241be49b)" style="fill: #ffffff; stroke: #000000; stroke-width: 0.1"/>
    <path d="M 274.978125 34.92 
L 302.878125 34.92 
L 302.878125 62.64 
L 274.978125 62.64 
L 274.978125 34.92 
" clip-path="url(#p04241be49b)" style="fill: #ffffff; stroke: #000000; stroke-width: 0.1"/>
   </g>
   <g id="matplotlib.axis_1">
    <g id="xtick_1">
     <g id="line2d_1">
      <defs>
       <path id="m0660eb7dcd" d="M 0 0 
L 0 3.5 
" style="stroke: #000000; stroke-width: 0.8"/>
      </defs>
      <g>
       <use xlink:href="#m0660eb7dcd" x="37.828125" y="62.64" style="stroke: #000000; stroke-width: 0.8"/>
      </g>
     </g>
     <g id="text_1">
      <!-- 5 -->
      <g transform="translate(34.646875 77.238438) scale(0.1 -0.1)">
       <defs>
        <path id="DejaVuSans-35" d="M 691 4666 
L 3169 4666 
L 3169 4134 
L 1269 4134 
L 1269 2991 
Q 1406 3038 1543 3061 
Q 1681 3084 1819 3084 
Q 2600 3084 3056 2656 
Q 3513 2228 3513 1497 
Q 3513 744 3044 326 
Q 2575 -91 1722 -91 
Q 1428 -91 1123 -41 
Q 819 9 494 109 
L 494 744 
Q 775 591 1075 516 
Q 1375 441 1709 441 
Q 2250 441 2565 725 
Q 2881 1009 2881 1497 
Q 2881 1984 2565 2268 
Q 2250 2553 1709 2553 
Q 1456 2553 1204 2497 
Q 953 2441 691 2322 
L 691 4666 
z
" transform="scale(0.015625)"/>
       </defs>
       <use xlink:href="#DejaVuSans-35"/>
      </g>
     </g>
    </g>
    <g id="xtick_2">
     <g id="line2d_2">
      <g>
       <use xlink:href="#m0660eb7dcd" x="65.728125" y="62.64" style="stroke: #000000; stroke-width: 0.8"/>
      </g>
     </g>
     <g id="text_2">
      <!-- 10 -->
      <g transform="translate(59.365625 77.238438) scale(0.1 -0.1)">
       <defs>
        <path id="DejaVuSans-31" d="M 794 531 
L 1825 531 
L 1825 4091 
L 703 3866 
L 703 4441 
L 1819 4666 
L 2450 4666 
L 2450 531 
L 3481 531 
L 3481 0 
L 794 0 
L 794 531 
z
" transform="scale(0.015625)"/>
        <path id="DejaVuSans-30" d="M 2034 4250 
Q 1547 4250 1301 3770 
Q 1056 3291 1056 2328 
Q 1056 1369 1301 889 
Q 1547 409 2034 409 
Q 2525 409 2770 889 
Q 3016 1369 3016 2328 
Q 3016 3291 2770 3770 
Q 2525 4250 2034 4250 
z
M 2034 4750 
Q 2819 4750 3233 4129 
Q 3647 3509 3647 2328 
Q 3647 1150 3233 529 
Q 2819 -91 2034 -91 
Q 1250 -91 836 529 
Q 422 1150 422 2328 
Q 422 3509 836 4129 
Q 1250 4750 2034 4750 
z
" transform="scale(0.015625)"/>
       </defs>
       <use xlink:href="#DejaVuSans-31"/>
       <use xlink:href="#DejaVuSans-30" x="63.623047"/>
      </g>
     </g>
    </g>
    <g id="xtick_3">
     <g id="line2d_3">
      <g>
       <use xlink:href="#m0660eb7dcd" x="93.628125" y="62.64" style="stroke: #000000; stroke-width: 0.8"/>
      </g>
     </g>
     <g id="text_3">
      <!-- 20 -->
      <g transform="translate(87.265625 77.238438) scale(0.1 -0.1)">
       <defs>
        <path id="DejaVuSans-32" d="M 1228 531 
L 3431 531 
L 3431 0 
L 469 0 
L 469 531 
Q 828 903 1448 1529 
Q 2069 2156 2228 2338 
Q 2531 2678 2651 2914 
Q 2772 3150 2772 3378 
Q 2772 3750 2511 3984 
Q 2250 4219 1831 4219 
Q 1534 4219 1204 4116 
Q 875 4013 500 3803 
L 500 4441 
Q 881 4594 1212 4672 
Q 1544 4750 1819 4750 
Q 2544 4750 2975 4387 
Q 3406 4025 3406 3419 
Q 3406 3131 3298 2873 
Q 3191 2616 2906 2266 
Q 2828 2175 2409 1742 
Q 1991 1309 1228 531 
z
" transform="scale(0.015625)"/>
       </defs>
       <use xlink:href="#DejaVuSans-32"/>
       <use xlink:href="#DejaVuSans-30" x="63.623047"/>
      </g>
     </g>
    </g>
    <g id="xtick_4">
     <g id="line2d_4">
      <g>
       <use xlink:href="#m0660eb7dcd" x="121.528125" y="62.64" style="stroke: #000000; stroke-width: 0.8"/>
      </g>
     </g>
     <g id="text_4">
      <!-- 30 -->
      <g transform="translate(115.165625 77.238438) scale(0.1 -0.1)">
       <defs>
        <path id="DejaVuSans-33" d="M 2597 2516 
Q 3050 2419 3304 2112 
Q 3559 1806 3559 1356 
Q 3559 666 3084 287 
Q 2609 -91 1734 -91 
Q 1441 -91 1130 -33 
Q 819 25 488 141 
L 488 750 
Q 750 597 1062 519 
Q 1375 441 1716 441 
Q 2309 441 2620 675 
Q 2931 909 2931 1356 
Q 2931 1769 2642 2001 
Q 2353 2234 1838 2234 
L 1294 2234 
L 1294 2753 
L 1863 2753 
Q 2328 2753 2575 2939 
Q 2822 3125 2822 3475 
Q 2822 3834 2567 4026 
Q 2313 4219 1838 4219 
Q 1578 4219 1281 4162 
Q 984 4106 628 3988 
L 628 4550 
Q 988 4650 1302 4700 
Q 1616 4750 1894 4750 
Q 2613 4750 3031 4423 
Q 3450 4097 3450 3541 
Q 3450 3153 3228 2886 
Q 3006 2619 2597 2516 
z
" transform="scale(0.015625)"/>
       </defs>
       <use xlink:href="#DejaVuSans-33"/>
       <use xlink:href="#DejaVuSans-30" x="63.623047"/>
      </g>
     </g>
    </g>
    <g id="xtick_5">
     <g id="line2d_5">
      <g>
       <use xlink:href="#m0660eb7dcd" x="149.428125" y="62.64" style="stroke: #000000; stroke-width: 0.8"/>
      </g>
     </g>
     <g id="text_5">
      <!-- 40 -->
      <g transform="translate(143.065625 77.238438) scale(0.1 -0.1)">
       <defs>
        <path id="DejaVuSans-34" d="M 2419 4116 
L 825 1625 
L 2419 1625 
L 2419 4116 
z
M 2253 4666 
L 3047 4666 
L 3047 1625 
L 3713 1625 
L 3713 1100 
L 3047 1100 
L 3047 0 
L 2419 0 
L 2419 1100 
L 313 1100 
L 313 1709 
L 2253 4666 
z
" transform="scale(0.015625)"/>
       </defs>
       <use xlink:href="#DejaVuSans-34"/>
       <use xlink:href="#DejaVuSans-30" x="63.623047"/>
      </g>
     </g>
    </g>
    <g id="xtick_6">
     <g id="line2d_6">
      <g>
       <use xlink:href="#m0660eb7dcd" x="177.328125" y="62.64" style="stroke: #000000; stroke-width: 0.8"/>
      </g>
     </g>
     <g id="text_6">
      <!-- 50 -->
      <g transform="translate(170.965625 77.238438) scale(0.1 -0.1)">
       <use xlink:href="#DejaVuSans-35"/>
       <use xlink:href="#DejaVuSans-30" x="63.623047"/>
      </g>
     </g>
    </g>
    <g id="xtick_7">
     <g id="line2d_7">
      <g>
       <use xlink:href="#m0660eb7dcd" x="205.228125" y="62.64" style="stroke: #000000; stroke-width: 0.8"/>
      </g>
     </g>
     <g id="text_7">
      <!-- 100 -->
      <g transform="translate(195.684375 77.238438) scale(0.1 -0.1)">
       <use xlink:href="#DejaVuSans-31"/>
       <use xlink:href="#DejaVuSans-30" x="63.623047"/>
       <use xlink:href="#DejaVuSans-30" x="127.246094"/>
      </g>
     </g>
    </g>
    <g id="xtick_8">
     <g id="line2d_8">
      <g>
       <use xlink:href="#m0660eb7dcd" x="233.128125" y="62.64" style="stroke: #000000; stroke-width: 0.8"/>
      </g>
     </g>
     <g id="text_8">
      <!-- 200 -->
      <g transform="translate(223.584375 77.238438) scale(0.1 -0.1)">
       <use xlink:href="#DejaVuSans-32"/>
       <use xlink:href="#DejaVuSans-30" x="63.623047"/>
       <use xlink:href="#DejaVuSans-30" x="127.246094"/>
      </g>
     </g>
    </g>
    <g id="xtick_9">
     <g id="line2d_9">
      <g>
       <use xlink:href="#m0660eb7dcd" x="261.028125" y="62.64" style="stroke: #000000; stroke-width: 0.8"/>
      </g>
     </g>
     <g id="text_9">
      <!-- 500 -->
      <g transform="translate(251.484375 77.238438) scale(0.1 -0.1)">
       <use xlink:href="#DejaVuSans-35"/>
       <use xlink:href="#DejaVuSans-30" x="63.623047"/>
       <use xlink:href="#DejaVuSans-30" x="127.246094"/>
      </g>
     </g>
    </g>
    <g id="xtick_10">
     <g id="line2d_10">
      <g>
       <use xlink:href="#m0660eb7dcd" x="288.928125" y="62.64" style="stroke: #000000; stroke-width: 0.8"/>
      </g>
     </g>
     <g id="text_10">
      <!-- 1000 -->
      <g transform="translate(276.203125 77.238438) scale(0.1 -0.1)">
       <use xlink:href="#DejaVuSans-31"/>
       <use xlink:href="#DejaVuSans-30" x="63.623047"/>
       <use xlink:href="#DejaVuSans-30" x="127.246094"/>
       <use xlink:href="#DejaVuSans-30" x="190.869141"/>
      </g>
     </g>
    </g>
   </g>
   <g id="matplotlib.axis_2">
    <g id="ytick_1">
     <g id="line2d_11">
      <defs>
       <path id="m98c4a8174e" d="M 0 0 
L -3.5 0 
" style="stroke: #000000; stroke-width: 0.8"/>
      </defs>
      <g>
       <use xlink:href="#m98c4a8174e" x="23.878125" y="21.06" style="stroke: #000000; stroke-width: 0.8"/>
      </g>
     </g>
     <g id="text_11">
      <!-- 1 -->
      <g transform="translate(14.798438 24.24125) rotate(-90) scale(0.1 -0.1)">
       <use xlink:href="#DejaVuSans-31"/>
      </g>
     </g>
    </g>
    <g id="ytick_2">
     <g id="line2d_12">
      <g>
       <use xlink:href="#m98c4a8174e" x="23.878125" y="48.78" style="stroke: #000000; stroke-width: 0.8"/>
      </g>
     </g>
     <g id="text_12">
      <!-- 0 -->
      <g transform="translate(14.798438 51.96125) rotate(-90) scale(0.1 -0.1)">
       <use xlink:href="#DejaVuSans-30"/>
      </g>
     </g>
    </g>
   </g>
   <g id="text_13">
    <!-- 1 -->
    <g style="fill: #ffffff" transform="translate(34.646875 23.819375) scale(0.1 -0.1)">
     <use xlink:href="#DejaVuSans-31"/>
    </g>
   </g>
   <g id="text_14">
    <!-- 1 -->
    <g style="fill: #ffffff" transform="translate(62.546875 23.819375) scale(0.1 -0.1)">
     <use xlink:href="#DejaVuSans-31"/>
    </g>
   </g>
   <g id="text_15">
    <!-- 1 -->
    <g style="fill: #ffffff" transform="translate(90.446875 23.819375) scale(0.1 -0.1)">
     <use xlink:href="#DejaVuSans-31"/>
    </g>
   </g>
   <g id="text_16">
    <!-- 1 -->
    <g style="fill: #ffffff" transform="translate(118.346875 23.819375) scale(0.1 -0.1)">
     <use xlink:href="#DejaVuSans-31"/>
    </g>
   </g>
   <g id="text_17">
    <!-- 1 -->
    <g style="fill: #ffffff" transform="translate(146.246875 23.819375) scale(0.1 -0.1)">
     <use xlink:href="#DejaVuSans-31"/>
    </g>
   </g>
   <g id="text_18">
    <!-- 1 -->
    <g style="fill: #ffffff" transform="translate(174.146875 23.819375) scale(0.1 -0.1)">
     <use xlink:href="#DejaVuSans-31"/>
    </g>
   </g>
   <g id="text_19">
    <!-- 1 -->
    <g style="fill: #ffffff" transform="translate(202.046875 23.819375) scale(0.1 -0.1)">
     <use xlink:href="#DejaVuSans-31"/>
    </g>
   </g>
   <g id="text_20">
    <!-- 1 -->
    <g style="fill: #ffffff" transform="translate(229.946875 23.819375) scale(0.1 -0.1)">
     <use xlink:href="#DejaVuSans-31"/>
    </g>
   </g>
   <g id="text_21">
    <!-- 1 -->
    <g style="fill: #ffffff" transform="translate(257.846875 23.819375) scale(0.1 -0.1)">
     <use xlink:href="#DejaVuSans-31"/>
    </g>
   </g>
   <g id="text_22">
    <!-- 1 -->
    <g style="fill: #ffffff" transform="translate(285.746875 23.819375) scale(0.1 -0.1)">
     <use xlink:href="#DejaVuSans-31"/>
    </g>
   </g>
   <g id="text_23">
    <!-- 2 -->
    <g style="fill: #262626" transform="translate(34.646875 51.539375) scale(0.1 -0.1)">
     <use xlink:href="#DejaVuSans-32"/>
    </g>
   </g>
   <g id="text_24">
    <!-- 2 -->
    <g style="fill: #262626" transform="translate(62.546875 51.539375) scale(0.1 -0.1)">
     <use xlink:href="#DejaVuSans-32"/>
    </g>
   </g>
   <g id="text_25">
    <!-- 2 -->
    <g style="fill: #262626" transform="translate(90.446875 51.539375) scale(0.1 -0.1)">
     <use xlink:href="#DejaVuSans-32"/>
    </g>
   </g>
   <g id="text_26">
    <!-- 2 -->
    <g style="fill: #262626" transform="translate(118.346875 51.539375) scale(0.1 -0.1)">
     <use xlink:href="#DejaVuSans-32"/>
    </g>
   </g>
   <g id="text_27">
    <!-- 2 -->
    <g style="fill: #262626" transform="translate(146.246875 51.539375) scale(0.1 -0.1)">
     <use xlink:href="#DejaVuSans-32"/>
    </g>
   </g>
   <g id="text_28">
    <!-- 2 -->
    <g style="fill: #262626" transform="translate(174.146875 51.539375) scale(0.1 -0.1)">
     <use xlink:href="#DejaVuSans-32"/>
    </g>
   </g>
   <g id="text_29">
    <!-- 2 -->
    <g style="fill: #262626" transform="translate(202.046875 51.539375) scale(0.1 -0.1)">
     <use xlink:href="#DejaVuSans-32"/>
    </g>
   </g>
   <g id="text_30">
    <!-- 2 -->
    <g style="fill: #262626" transform="translate(229.946875 51.539375) scale(0.1 -0.1)">
     <use xlink:href="#DejaVuSans-32"/>
    </g>
   </g>
   <g id="text_31">
    <!-- 2 -->
    <g style="fill: #262626" transform="translate(257.846875 51.539375) scale(0.1 -0.1)">
     <use xlink:href="#DejaVuSans-32"/>
    </g>
   </g>
   <g id="text_32">
    <!-- 2 -->
    <g style="fill: #262626" transform="translate(285.746875 51.539375) scale(0.1 -0.1)">
     <use xlink:href="#DejaVuSans-32"/>
    </g>
   </g>
  </g>
 </g>
 <defs>
  <clipPath id="p04241be49b">
   <rect x="23.878125" y="7.2" width="279" height="55.44"/>
  </clipPath>
 </defs>
</svg>
