<?xml version="1.0" encoding="utf-8" standalone="no"?>
<!DOCTYPE svg PUBLIC "-//W3C//DTD SVG 1.1//EN"
  "http://www.w3.org/Graphics/SVG/1.1/DTD/svg11.dtd">
<svg xmlns:xlink="http://www.w3.org/1999/xlink" width="310.078125pt" height="252.838125pt" viewBox="0 0 310.078125 252.838125" xmlns="http://www.w3.org/2000/svg" version="1.1">
 <metadata>
  <rdf:RDF xmlns:dc="http://purl.org/dc/elements/1.1/" xmlns:cc="http://creativecommons.org/ns#" xmlns:rdf="http://www.w3.org/1999/02/22-rdf-syntax-ns#">
   <cc:Work>
    <dc:type rdf:resource="http://purl.org/dc/dcmitype/StillImage"/>
    <dc:date>2023-11-06T08:40:19.470234</dc:date>
    <dc:format>image/svg+xml</dc:format>
    <dc:creator>
     <cc:Agent>
      <dc:title>Matplotlib v3.7.1, https://matplotlib.org/</dc:title>
     </cc:Agent>
    </dc:creator>
   </cc:Work>
  </rdf:RDF>
 </metadata>
 <defs>
  <style type="text/css">*{stroke-linejoin: round; stroke-linecap: butt}</style>
 </defs>
 <g id="figure_1">
  <g id="patch_1">
   <path d="M 0 252.838125 
L 310.078125 252.838125 
L 310.078125 0 
L 0 0 
z
" style="fill: #ffffff"/>
  </g>
  <g id="axes_1">
   <g id="patch_2">
    <path d="M 23.878125 228.96 
L 302.878125 228.96 
L 302.878125 7.2 
L 23.878125 7.2 
z
" style="fill: #ffffff"/>
   </g>
   <g id="QuadMesh_1">
    <path d="M 23.878125 7.2 
L 51.778125 7.2 
L 51.778125 34.92 
L 23.878125 34.92 
L 23.878125 7.2 
" clip-path="url(#p13e2805248)" style="stroke: #000000; stroke-width: 0.1"/>
    <path d="M 51.778125 7.2 
L 79.678125 7.2 
L 79.678125 34.92 
L 51.778125 34.92 
L 51.778125 7.2 
" clip-path="url(#p13e2805248)" style="stroke: #000000; stroke-width: 0.1"/>
    <path d="M 79.678125 7.2 
L 107.578125 7.2 
L 107.578125 34.92 
L 79.678125 34.92 
L 79.678125 7.2 
" clip-path="url(#p13e2805248)" style="stroke: #000000; stroke-width: 0.1"/>
    <path d="M 107.578125 7.2 
L 135.478125 7.2 
L 135.478125 34.92 
L 107.578125 34.92 
L 107.578125 7.2 
" clip-path="url(#p13e2805248)" style="stroke: #000000; stroke-width: 0.1"/>
    <path d="M 135.478125 7.2 
L 163.378125 7.2 
L 163.378125 34.92 
L 135.478125 34.92 
L 135.478125 7.2 
" clip-path="url(#p13e2805248)" style="fill: #5c5c5c; stroke: #000000; stroke-width: 0.1"/>
    <path d="M 163.378125 7.2 
L 191.278125 7.2 
L 191.278125 34.92 
L 163.378125 34.92 
L 163.378125 7.2 
" clip-path="url(#p13e2805248)" style="fill: #5c5c5c; stroke: #000000; stroke-width: 0.1"/>
    <path d="M 191.278125 7.2 
L 219.178125 7.2 
L 219.178125 34.92 
L 191.278125 34.92 
L 191.278125 7.2 
" clip-path="url(#p13e2805248)" style="stroke: #000000; stroke-width: 0.1"/>
    <path d="M 219.178125 7.2 
L 247.078125 7.2 
L 247.078125 34.92 
L 219.178125 34.92 
L 219.178125 7.2 
" clip-path="url(#p13e2805248)" style="stroke: #000000; stroke-width: 0.1"/>
    <path d="M 247.078125 7.2 
L 274.978125 7.2 
L 274.978125 34.92 
L 247.078125 34.92 
L 247.078125 7.2 
" clip-path="url(#p13e2805248)" style="stroke: #000000; stroke-width: 0.1"/>
    <path d="M 274.978125 7.2 
L 302.878125 7.2 
L 302.878125 34.92 
L 274.978125 34.92 
L 274.978125 7.2 
" clip-path="url(#p13e2805248)" style="stroke: #000000; stroke-width: 0.1"/>
    <path d="M 23.878125 34.92 
L 51.778125 34.92 
L 51.778125 62.64 
L 23.878125 62.64 
L 23.878125 34.92 
" clip-path="url(#p13e2805248)" style="fill: #2b2b2b; stroke: #000000; stroke-width: 0.1"/>
    <path d="M 51.778125 34.92 
L 79.678125 34.92 
L 79.678125 62.64 
L 51.778125 62.64 
L 51.778125 34.92 
" clip-path="url(#p13e2805248)" style="fill: #2b2b2b; stroke: #000000; stroke-width: 0.1"/>
    <path d="M 79.678125 34.92 
L 107.578125 34.92 
L 107.578125 62.64 
L 79.678125 62.64 
L 79.678125 34.92 
" clip-path="url(#p13e2805248)" style="fill: #2b2b2b; stroke: #000000; stroke-width: 0.1"/>
    <path d="M 107.578125 34.92 
L 135.478125 34.92 
L 135.478125 62.64 
L 107.578125 62.64 
L 107.578125 34.92 
" clip-path="url(#p13e2805248)" style="fill: #2b2b2b; stroke: #000000; stroke-width: 0.1"/>
    <path d="M 135.478125 34.92 
L 163.378125 34.92 
L 163.378125 62.64 
L 135.478125 62.64 
L 135.478125 34.92 
" clip-path="url(#p13e2805248)" style="fill: #2b2b2b; stroke: #000000; stroke-width: 0.1"/>
    <path d="M 163.378125 34.92 
L 191.278125 34.92 
L 191.278125 62.64 
L 163.378125 62.64 
L 163.378125 34.92 
" clip-path="url(#p13e2805248)" style="fill: #2b2b2b; stroke: #000000; stroke-width: 0.1"/>
    <path d="M 191.278125 34.92 
L 219.178125 34.92 
L 219.178125 62.64 
L 191.278125 62.64 
L 191.278125 34.92 
" clip-path="url(#p13e2805248)" style="fill: #2b2b2b; stroke: #000000; stroke-width: 0.1"/>
    <path d="M 219.178125 34.92 
L 247.078125 34.92 
L 247.078125 62.64 
L 219.178125 62.64 
L 219.178125 34.92 
" clip-path="url(#p13e2805248)" style="fill: #2b2b2b; stroke: #000000; stroke-width: 0.1"/>
    <path d="M 247.078125 34.92 
L 274.978125 34.92 
L 274.978125 62.64 
L 247.078125 62.64 
L 247.078125 34.92 
" clip-path="url(#p13e2805248)" style="fill: #2b2b2b; stroke: #000000; stroke-width: 0.1"/>
    <path d="M 274.978125 34.92 
L 302.878125 34.92 
L 302.878125 62.64 
L 274.978125 62.64 
L 274.978125 34.92 
" clip-path="url(#p13e2805248)" style="fill: #2b2b2b; stroke: #000000; stroke-width: 0.1"/>
    <path d="M 23.878125 62.64 
L 51.778125 62.64 
L 51.778125 90.36 
L 23.878125 90.36 
L 23.878125 62.64 
" clip-path="url(#p13e2805248)" style="fill: #5c5c5c; stroke: #000000; stroke-width: 0.1"/>
    <path d="M 51.778125 62.64 
L 79.678125 62.64 
L 79.678125 90.36 
L 51.778125 90.36 
L 51.778125 62.64 
" clip-path="url(#p13e2805248)" style="fill: #5c5c5c; stroke: #000000; stroke-width: 0.1"/>
    <path d="M 79.678125 62.64 
L 107.578125 62.64 
L 107.578125 90.36 
L 79.678125 90.36 
L 79.678125 62.64 
" clip-path="url(#p13e2805248)" style="fill: #5c5c5c; stroke: #000000; stroke-width: 0.1"/>
    <path d="M 107.578125 62.64 
L 135.478125 62.64 
L 135.478125 90.36 
L 107.578125 90.36 
L 107.578125 62.64 
" clip-path="url(#p13e2805248)" style="fill: #5c5c5c; stroke: #000000; stroke-width: 0.1"/>
    <path d="M 135.478125 62.64 
L 163.378125 62.64 
L 163.378125 90.36 
L 135.478125 90.36 
L 135.478125 62.64 
" clip-path="url(#p13e2805248)" style="stroke: #000000; stroke-width: 0.1"/>
    <path d="M 163.378125 62.64 
L 191.278125 62.64 
L 191.278125 90.36 
L 163.378125 90.36 
L 163.378125 62.64 
" clip-path="url(#p13e2805248)" style="stroke: #000000; stroke-width: 0.1"/>
    <path d="M 191.278125 62.64 
L 219.178125 62.64 
L 219.178125 90.36 
L 191.278125 90.36 
L 191.278125 62.64 
" clip-path="url(#p13e2805248)" style="fill: #5c5c5c; stroke: #000000; stroke-width: 0.1"/>
    <path d="M 219.178125 62.64 
L 247.078125 62.64 
L 247.078125 90.36 
L 219.178125 90.36 
L 219.178125 62.64 
" clip-path="url(#p13e2805248)" style="fill: #5c5c5c; stroke: #000000; stroke-width: 0.1"/>
    <path d="M 247.078125 62.64 
L 274.978125 62.64 
L 274.978125 90.36 
L 247.078125 90.36 
L 247.078125 62.64 
" clip-path="url(#p13e2805248)" style="fill: #5c5c5c; stroke: #000000; stroke-width: 0.1"/>
    <path d="M 274.978125 62.64 
L 302.878125 62.64 
L 302.878125 90.36 
L 274.978125 90.36 
L 274.978125 62.64 
" clip-path="url(#p13e2805248)" style="fill: #5c5c5c; stroke: #000000; stroke-width: 0.1"/>
    <path d="M 23.878125 90.36 
L 51.778125 90.36 
L 51.778125 118.08 
L 23.878125 118.08 
L 23.878125 90.36 
" clip-path="url(#p13e2805248)" style="fill: #828282; stroke: #000000; stroke-width: 0.1"/>
    <path d="M 51.778125 90.36 
L 79.678125 90.36 
L 79.678125 118.08 
L 51.778125 118.08 
L 51.778125 90.36 
" clip-path="url(#p13e2805248)" style="fill: #828282; stroke: #000000; stroke-width: 0.1"/>
    <path d="M 79.678125 90.36 
L 107.578125 90.36 
L 107.578125 118.08 
L 79.678125 118.08 
L 79.678125 90.36 
" clip-path="url(#p13e2805248)" style="fill: #828282; stroke: #000000; stroke-width: 0.1"/>
    <path d="M 107.578125 90.36 
L 135.478125 90.36 
L 135.478125 118.08 
L 107.578125 118.08 
L 107.578125 90.36 
" clip-path="url(#p13e2805248)" style="fill: #828282; stroke: #000000; stroke-width: 0.1"/>
    <path d="M 135.478125 90.36 
L 163.378125 90.36 
L 163.378125 118.08 
L 135.478125 118.08 
L 135.478125 90.36 
" clip-path="url(#p13e2805248)" style="fill: #828282; stroke: #000000; stroke-width: 0.1"/>
    <path d="M 163.378125 90.36 
L 191.278125 90.36 
L 191.278125 118.08 
L 163.378125 118.08 
L 163.378125 90.36 
" clip-path="url(#p13e2805248)" style="fill: #828282; stroke: #000000; stroke-width: 0.1"/>
    <path d="M 191.278125 90.36 
L 219.178125 90.36 
L 219.178125 118.08 
L 191.278125 118.08 
L 191.278125 90.36 
" clip-path="url(#p13e2805248)" style="fill: #828282; stroke: #000000; stroke-width: 0.1"/>
    <path d="M 219.178125 90.36 
L 247.078125 90.36 
L 247.078125 118.08 
L 219.178125 118.08 
L 219.178125 90.36 
" clip-path="url(#p13e2805248)" style="fill: #828282; stroke: #000000; stroke-width: 0.1"/>
    <path d="M 247.078125 90.36 
L 274.978125 90.36 
L 274.978125 118.08 
L 247.078125 118.08 
L 247.078125 90.36 
" clip-path="url(#p13e2805248)" style="fill: #828282; stroke: #000000; stroke-width: 0.1"/>
    <path d="M 274.978125 90.36 
L 302.878125 90.36 
L 302.878125 118.08 
L 274.978125 118.08 
L 274.978125 90.36 
" clip-path="url(#p13e2805248)" style="fill: #828282; stroke: #000000; stroke-width: 0.1"/>
    <path d="M 23.878125 118.08 
L 51.778125 118.08 
L 51.778125 145.8 
L 23.878125 145.8 
L 23.878125 118.08 
" clip-path="url(#p13e2805248)" style="fill: #adadad; stroke: #000000; stroke-width: 0.1"/>
    <path d="M 51.778125 118.08 
L 79.678125 118.08 
L 79.678125 145.8 
L 51.778125 145.8 
L 51.778125 118.08 
" clip-path="url(#p13e2805248)" style="fill: #adadad; stroke: #000000; stroke-width: 0.1"/>
    <path d="M 79.678125 118.08 
L 107.578125 118.08 
L 107.578125 145.8 
L 79.678125 145.8 
L 79.678125 118.08 
" clip-path="url(#p13e2805248)" style="fill: #adadad; stroke: #000000; stroke-width: 0.1"/>
    <path d="M 107.578125 118.08 
L 135.478125 118.08 
L 135.478125 145.8 
L 107.578125 145.8 
L 107.578125 118.08 
" clip-path="url(#p13e2805248)" style="fill: #adadad; stroke: #000000; stroke-width: 0.1"/>
    <path d="M 135.478125 118.08 
L 163.378125 118.08 
L 163.378125 145.8 
L 135.478125 145.8 
L 135.478125 118.08 
" clip-path="url(#p13e2805248)" style="fill: #adadad; stroke: #000000; stroke-width: 0.1"/>
    <path d="M 163.378125 118.08 
L 191.278125 118.08 
L 191.278125 145.8 
L 163.378125 145.8 
L 163.378125 118.08 
" clip-path="url(#p13e2805248)" style="fill: #adadad; stroke: #000000; stroke-width: 0.1"/>
    <path d="M 191.278125 118.08 
L 219.178125 118.08 
L 219.178125 145.8 
L 191.278125 145.8 
L 191.278125 118.08 
" clip-path="url(#p13e2805248)" style="fill: #adadad; stroke: #000000; stroke-width: 0.1"/>
    <path d="M 219.178125 118.08 
L 247.078125 118.08 
L 247.078125 145.8 
L 219.178125 145.8 
L 219.178125 118.08 
" clip-path="url(#p13e2805248)" style="fill: #adadad; stroke: #000000; stroke-width: 0.1"/>
    <path d="M 247.078125 118.08 
L 274.978125 118.08 
L 274.978125 145.8 
L 247.078125 145.8 
L 247.078125 118.08 
" clip-path="url(#p13e2805248)" style="fill: #adadad; stroke: #000000; stroke-width: 0.1"/>
    <path d="M 274.978125 118.08 
L 302.878125 118.08 
L 302.878125 145.8 
L 274.978125 145.8 
L 274.978125 118.08 
" clip-path="url(#p13e2805248)" style="fill: #adadad; stroke: #000000; stroke-width: 0.1"/>
    <path d="M 23.878125 145.8 
L 51.778125 145.8 
L 51.778125 173.52 
L 23.878125 173.52 
L 23.878125 145.8 
" clip-path="url(#p13e2805248)" style="fill: #d1d1d1; stroke: #000000; stroke-width: 0.1"/>
    <path d="M 51.778125 145.8 
L 79.678125 145.8 
L 79.678125 173.52 
L 51.778125 173.52 
L 51.778125 145.8 
" clip-path="url(#p13e2805248)" style="fill: #d1d1d1; stroke: #000000; stroke-width: 0.1"/>
    <path d="M 79.678125 145.8 
L 107.578125 145.8 
L 107.578125 173.52 
L 79.678125 173.52 
L 79.678125 145.8 
" clip-path="url(#p13e2805248)" style="fill: #d1d1d1; stroke: #000000; stroke-width: 0.1"/>
    <path d="M 107.578125 145.8 
L 135.478125 145.8 
L 135.478125 173.52 
L 107.578125 173.52 
L 107.578125 145.8 
" clip-path="url(#p13e2805248)" style="fill: #d1d1d1; stroke: #000000; stroke-width: 0.1"/>
    <path d="M 135.478125 145.8 
L 163.378125 145.8 
L 163.378125 173.52 
L 135.478125 173.52 
L 135.478125 145.8 
" clip-path="url(#p13e2805248)" style="fill: #d1d1d1; stroke: #000000; stroke-width: 0.1"/>
    <path d="M 163.378125 145.8 
L 191.278125 145.8 
L 191.278125 173.52 
L 163.378125 173.52 
L 163.378125 145.8 
" clip-path="url(#p13e2805248)" style="fill: #d1d1d1; stroke: #000000; stroke-width: 0.1"/>
    <path d="M 191.278125 145.8 
L 219.178125 145.8 
L 219.178125 173.52 
L 191.278125 173.52 
L 191.278125 145.8 
" clip-path="url(#p13e2805248)" style="fill: #d1d1d1; stroke: #000000; stroke-width: 0.1"/>
    <path d="M 219.178125 145.8 
L 247.078125 145.8 
L 247.078125 173.52 
L 219.178125 173.52 
L 219.178125 145.8 
" clip-path="url(#p13e2805248)" style="fill: #d1d1d1; stroke: #000000; stroke-width: 0.1"/>
    <path d="M 247.078125 145.8 
L 274.978125 145.8 
L 274.978125 173.52 
L 247.078125 173.52 
L 247.078125 145.8 
" clip-path="url(#p13e2805248)" style="fill: #d1d1d1; stroke: #000000; stroke-width: 0.1"/>
    <path d="M 274.978125 145.8 
L 302.878125 145.8 
L 302.878125 173.52 
L 274.978125 173.52 
L 274.978125 145.8 
" clip-path="url(#p13e2805248)" style="fill: #d1d1d1; stroke: #000000; stroke-width: 0.1"/>
    <path d="M 23.878125 173.52 
L 51.778125 173.52 
L 51.778125 201.24 
L 23.878125 201.24 
L 23.878125 173.52 
" clip-path="url(#p13e2805248)" style="fill: #ededed; stroke: #000000; stroke-width: 0.1"/>
    <path d="M 51.778125 173.52 
L 79.678125 173.52 
L 79.678125 201.24 
L 51.778125 201.24 
L 51.778125 173.52 
" clip-path="url(#p13e2805248)" style="fill: #ededed; stroke: #000000; stroke-width: 0.1"/>
    <path d="M 79.678125 173.52 
L 107.578125 173.52 
L 107.578125 201.24 
L 79.678125 201.24 
L 79.678125 173.52 
" clip-path="url(#p13e2805248)" style="fill: #ededed; stroke: #000000; stroke-width: 0.1"/>
    <path d="M 107.578125 173.52 
L 135.478125 173.52 
L 135.478125 201.24 
L 107.578125 201.24 
L 107.578125 173.52 
" clip-path="url(#p13e2805248)" style="fill: #ededed; stroke: #000000; stroke-width: 0.1"/>
    <path d="M 135.478125 173.52 
L 163.378125 173.52 
L 163.378125 201.24 
L 135.478125 201.24 
L 135.478125 173.52 
" clip-path="url(#p13e2805248)" style="fill: #ededed; stroke: #000000; stroke-width: 0.1"/>
    <path d="M 163.378125 173.52 
L 191.278125 173.52 
L 191.278125 201.24 
L 163.378125 201.24 
L 163.378125 173.52 
" clip-path="url(#p13e2805248)" style="fill: #ededed; stroke: #000000; stroke-width: 0.1"/>
    <path d="M 191.278125 173.52 
L 219.178125 173.52 
L 219.178125 201.24 
L 191.278125 201.24 
L 191.278125 173.52 
" clip-path="url(#p13e2805248)" style="fill: #ededed; stroke: #000000; stroke-width: 0.1"/>
    <path d="M 219.178125 173.52 
L 247.078125 173.52 
L 247.078125 201.24 
L 219.178125 201.24 
L 219.178125 173.52 
" clip-path="url(#p13e2805248)" style="fill: #ededed; stroke: #000000; stroke-width: 0.1"/>
    <path d="M 247.078125 173.52 
L 274.978125 173.52 
L 274.978125 201.24 
L 247.078125 201.24 
L 247.078125 173.52 
" clip-path="url(#p13e2805248)" style="fill: #ededed; stroke: #000000; stroke-width: 0.1"/>
    <path d="M 274.978125 173.52 
L 302.878125 173.52 
L 302.878125 201.24 
L 274.978125 201.24 
L 274.978125 173.52 
" clip-path="url(#p13e2805248)" style="fill: #ededed; stroke: #000000; stroke-width: 0.1"/>
    <path d="M 23.878125 201.24 
L 51.778125 201.24 
L 51.778125 228.96 
L 23.878125 228.96 
L 23.878125 201.24 
" clip-path="url(#p13e2805248)" style="fill: #ffffff; stroke: #000000; stroke-width: 0.1"/>
    <path d="M 51.778125 201.24 
L 79.678125 201.24 
L 79.678125 228.96 
L 51.778125 228.96 
L 51.778125 201.24 
" clip-path="url(#p13e2805248)" style="fill: #ffffff; stroke: #000000; stroke-width: 0.1"/>
    <path d="M 79.678125 201.24 
L 107.578125 201.24 
L 107.578125 228.96 
L 79.678125 228.96 
L 79.678125 201.24 
" clip-path="url(#p13e2805248)" style="fill: #ffffff; stroke: #000000; stroke-width: 0.1"/>
    <path d="M 107.578125 201.24 
L 135.478125 201.24 
L 135.478125 228.96 
L 107.578125 228.96 
L 107.578125 201.24 
" clip-path="url(#p13e2805248)" style="fill: #ffffff; stroke: #000000; stroke-width: 0.1"/>
    <path d="M 135.478125 201.24 
L 163.378125 201.24 
L 163.378125 228.96 
L 135.478125 228.96 
L 135.478125 201.24 
" clip-path="url(#p13e2805248)" style="fill: #ffffff; stroke: #000000; stroke-width: 0.1"/>
    <path d="M 163.378125 201.24 
L 191.278125 201.24 
L 191.278125 228.96 
L 163.378125 228.96 
L 163.378125 201.24 
" clip-path="url(#p13e2805248)" style="fill: #ffffff; stroke: #000000; stroke-width: 0.1"/>
    <path d="M 191.278125 201.24 
L 219.178125 201.24 
L 219.178125 228.96 
L 191.278125 228.96 
L 191.278125 201.24 
" clip-path="url(#p13e2805248)" style="fill: #ffffff; stroke: #000000; stroke-width: 0.1"/>
    <path d="M 219.178125 201.24 
L 247.078125 201.24 
L 247.078125 228.96 
L 219.178125 228.96 
L 219.178125 201.24 
" clip-path="url(#p13e2805248)" style="fill: #ffffff; stroke: #000000; stroke-width: 0.1"/>
    <path d="M 247.078125 201.24 
L 274.978125 201.24 
L 274.978125 228.96 
L 247.078125 228.96 
L 247.078125 201.24 
" clip-path="url(#p13e2805248)" style="fill: #ffffff; stroke: #000000; stroke-width: 0.1"/>
    <path d="M 274.978125 201.24 
L 302.878125 201.24 
L 302.878125 228.96 
L 274.978125 228.96 
L 274.978125 201.24 
" clip-path="url(#p13e2805248)" style="fill: #ffffff; stroke: #000000; stroke-width: 0.1"/>
   </g>
   <g id="matplotlib.axis_1">
    <g id="xtick_1">
     <g id="line2d_1">
      <defs>
       <path id="m782e9ca80b" d="M 0 0 
L 0 3.5 
" style="stroke: #000000; stroke-width: 0.8"/>
      </defs>
      <g>
       <use xlink:href="#m782e9ca80b" x="37.828125" y="228.96" style="stroke: #000000; stroke-width: 0.8"/>
      </g>
     </g>
     <g id="text_1">
      <!-- 5 -->
      <g transform="translate(34.646875 243.558437) scale(0.1 -0.1)">
       <defs>
        <path id="DejaVuSans-35" d="M 691 4666 
L 3169 4666 
L 3169 4134 
L 1269 4134 
L 1269 2991 
Q 1406 3038 1543 3061 
Q 1681 3084 1819 3084 
Q 2600 3084 3056 2656 
Q 3513 2228 3513 1497 
Q 3513 744 3044 326 
Q 2575 -91 1722 -91 
Q 1428 -91 1123 -41 
Q 819 9 494 109 
L 494 744 
Q 775 591 1075 516 
Q 1375 441 1709 441 
Q 2250 441 2565 725 
Q 2881 1009 2881 1497 
Q 2881 1984 2565 2268 
Q 2250 2553 1709 2553 
Q 1456 2553 1204 2497 
Q 953 2441 691 2322 
L 691 4666 
z
" transform="scale(0.015625)"/>
       </defs>
       <use xlink:href="#DejaVuSans-35"/>
      </g>
     </g>
    </g>
    <g id="xtick_2">
     <g id="line2d_2">
      <g>
       <use xlink:href="#m782e9ca80b" x="65.728125" y="228.96" style="stroke: #000000; stroke-width: 0.8"/>
      </g>
     </g>
     <g id="text_2">
      <!-- 10 -->
      <g transform="translate(59.365625 243.558437) scale(0.1 -0.1)">
       <defs>
        <path id="DejaVuSans-31" d="M 794 531 
L 1825 531 
L 1825 4091 
L 703 3866 
L 703 4441 
L 1819 4666 
L 2450 4666 
L 2450 531 
L 3481 531 
L 3481 0 
L 794 0 
L 794 531 
z
" transform="scale(0.015625)"/>
        <path id="DejaVuSans-30" d="M 2034 4250 
Q 1547 4250 1301 3770 
Q 1056 3291 1056 2328 
Q 1056 1369 1301 889 
Q 1547 409 2034 409 
Q 2525 409 2770 889 
Q 3016 1369 3016 2328 
Q 3016 3291 2770 3770 
Q 2525 4250 2034 4250 
z
M 2034 4750 
Q 2819 4750 3233 4129 
Q 3647 3509 3647 2328 
Q 3647 1150 3233 529 
Q 2819 -91 2034 -91 
Q 1250 -91 836 529 
Q 422 1150 422 2328 
Q 422 3509 836 4129 
Q 1250 4750 2034 4750 
z
" transform="scale(0.015625)"/>
       </defs>
       <use xlink:href="#DejaVuSans-31"/>
       <use xlink:href="#DejaVuSans-30" x="63.623047"/>
      </g>
     </g>
    </g>
    <g id="xtick_3">
     <g id="line2d_3">
      <g>
       <use xlink:href="#m782e9ca80b" x="93.628125" y="228.96" style="stroke: #000000; stroke-width: 0.8"/>
      </g>
     </g>
     <g id="text_3">
      <!-- 20 -->
      <g transform="translate(87.265625 243.558437) scale(0.1 -0.1)">
       <defs>
        <path id="DejaVuSans-32" d="M 1228 531 
L 3431 531 
L 3431 0 
L 469 0 
L 469 531 
Q 828 903 1448 1529 
Q 2069 2156 2228 2338 
Q 2531 2678 2651 2914 
Q 2772 3150 2772 3378 
Q 2772 3750 2511 3984 
Q 2250 4219 1831 4219 
Q 1534 4219 1204 4116 
Q 875 4013 500 3803 
L 500 4441 
Q 881 4594 1212 4672 
Q 1544 4750 1819 4750 
Q 2544 4750 2975 4387 
Q 3406 4025 3406 3419 
Q 3406 3131 3298 2873 
Q 3191 2616 2906 2266 
Q 2828 2175 2409 1742 
Q 1991 1309 1228 531 
z
" transform="scale(0.015625)"/>
       </defs>
       <use xlink:href="#DejaVuSans-32"/>
       <use xlink:href="#DejaVuSans-30" x="63.623047"/>
      </g>
     </g>
    </g>
    <g id="xtick_4">
     <g id="line2d_4">
      <g>
       <use xlink:href="#m782e9ca80b" x="121.528125" y="228.96" style="stroke: #000000; stroke-width: 0.8"/>
      </g>
     </g>
     <g id="text_4">
      <!-- 30 -->
      <g transform="translate(115.165625 243.558437) scale(0.1 -0.1)">
       <defs>
        <path id="DejaVuSans-33" d="M 2597 2516 
Q 3050 2419 3304 2112 
Q 3559 1806 3559 1356 
Q 3559 666 3084 287 
Q 2609 -91 1734 -91 
Q 1441 -91 1130 -33 
Q 819 25 488 141 
L 488 750 
Q 750 597 1062 519 
Q 1375 441 1716 441 
Q 2309 441 2620 675 
Q 2931 909 2931 1356 
Q 2931 1769 2642 2001 
Q 2353 2234 1838 2234 
L 1294 2234 
L 1294 2753 
L 1863 2753 
Q 2328 2753 2575 2939 
Q 2822 3125 2822 3475 
Q 2822 3834 2567 4026 
Q 2313 4219 1838 4219 
Q 1578 4219 1281 4162 
Q 984 4106 628 3988 
L 628 4550 
Q 988 4650 1302 4700 
Q 1616 4750 1894 4750 
Q 2613 4750 3031 4423 
Q 3450 4097 3450 3541 
Q 3450 3153 3228 2886 
Q 3006 2619 2597 2516 
z
" transform="scale(0.015625)"/>
       </defs>
       <use xlink:href="#DejaVuSans-33"/>
       <use xlink:href="#DejaVuSans-30" x="63.623047"/>
      </g>
     </g>
    </g>
    <g id="xtick_5">
     <g id="line2d_5">
      <g>
       <use xlink:href="#m782e9ca80b" x="149.428125" y="228.96" style="stroke: #000000; stroke-width: 0.8"/>
      </g>
     </g>
     <g id="text_5">
      <!-- 40 -->
      <g transform="translate(143.065625 243.558437) scale(0.1 -0.1)">
       <defs>
        <path id="DejaVuSans-34" d="M 2419 4116 
L 825 1625 
L 2419 1625 
L 2419 4116 
z
M 2253 4666 
L 3047 4666 
L 3047 1625 
L 3713 1625 
L 3713 1100 
L 3047 1100 
L 3047 0 
L 2419 0 
L 2419 1100 
L 313 1100 
L 313 1709 
L 2253 4666 
z
" transform="scale(0.015625)"/>
       </defs>
       <use xlink:href="#DejaVuSans-34"/>
       <use xlink:href="#DejaVuSans-30" x="63.623047"/>
      </g>
     </g>
    </g>
    <g id="xtick_6">
     <g id="line2d_6">
      <g>
       <use xlink:href="#m782e9ca80b" x="177.328125" y="228.96" style="stroke: #000000; stroke-width: 0.8"/>
      </g>
     </g>
     <g id="text_6">
      <!-- 50 -->
      <g transform="translate(170.965625 243.558437) scale(0.1 -0.1)">
       <use xlink:href="#DejaVuSans-35"/>
       <use xlink:href="#DejaVuSans-30" x="63.623047"/>
      </g>
     </g>
    </g>
    <g id="xtick_7">
     <g id="line2d_7">
      <g>
       <use xlink:href="#m782e9ca80b" x="205.228125" y="228.96" style="stroke: #000000; stroke-width: 0.8"/>
      </g>
     </g>
     <g id="text_7">
      <!-- 100 -->
      <g transform="translate(195.684375 243.558437) scale(0.1 -0.1)">
       <use xlink:href="#DejaVuSans-31"/>
       <use xlink:href="#DejaVuSans-30" x="63.623047"/>
       <use xlink:href="#DejaVuSans-30" x="127.246094"/>
      </g>
     </g>
    </g>
    <g id="xtick_8">
     <g id="line2d_8">
      <g>
       <use xlink:href="#m782e9ca80b" x="233.128125" y="228.96" style="stroke: #000000; stroke-width: 0.8"/>
      </g>
     </g>
     <g id="text_8">
      <!-- 200 -->
      <g transform="translate(223.584375 243.558437) scale(0.1 -0.1)">
       <use xlink:href="#DejaVuSans-32"/>
       <use xlink:href="#DejaVuSans-30" x="63.623047"/>
       <use xlink:href="#DejaVuSans-30" x="127.246094"/>
      </g>
     </g>
    </g>
    <g id="xtick_9">
     <g id="line2d_9">
      <g>
       <use xlink:href="#m782e9ca80b" x="261.028125" y="228.96" style="stroke: #000000; stroke-width: 0.8"/>
      </g>
     </g>
     <g id="text_9">
      <!-- 500 -->
      <g transform="translate(251.484375 243.558437) scale(0.1 -0.1)">
       <use xlink:href="#DejaVuSans-35"/>
       <use xlink:href="#DejaVuSans-30" x="63.623047"/>
       <use xlink:href="#DejaVuSans-30" x="127.246094"/>
      </g>
     </g>
    </g>
    <g id="xtick_10">
     <g id="line2d_10">
      <g>
       <use xlink:href="#m782e9ca80b" x="288.928125" y="228.96" style="stroke: #000000; stroke-width: 0.8"/>
      </g>
     </g>
     <g id="text_10">
      <!-- 1000 -->
      <g transform="translate(276.203125 243.558437) scale(0.1 -0.1)">
       <use xlink:href="#DejaVuSans-31"/>
       <use xlink:href="#DejaVuSans-30" x="63.623047"/>
       <use xlink:href="#DejaVuSans-30" x="127.246094"/>
       <use xlink:href="#DejaVuSans-30" x="190.869141"/>
      </g>
     </g>
    </g>
   </g>
   <g id="matplotlib.axis_2">
    <g id="ytick_1">
     <g id="line2d_11">
      <defs>
       <path id="mcc2f342986" d="M 0 0 
L -3.5 0 
" style="stroke: #000000; stroke-width: 0.8"/>
      </defs>
      <g>
       <use xlink:href="#mcc2f342986" x="23.878125" y="21.06" style="stroke: #000000; stroke-width: 0.8"/>
      </g>
     </g>
     <g id="text_11">
      <!-- 5 -->
      <g transform="translate(14.798438 24.24125) rotate(-90) scale(0.1 -0.1)">
       <use xlink:href="#DejaVuSans-35"/>
      </g>
     </g>
    </g>
    <g id="ytick_2">
     <g id="line2d_12">
      <g>
       <use xlink:href="#mcc2f342986" x="23.878125" y="48.78" style="stroke: #000000; stroke-width: 0.8"/>
      </g>
     </g>
     <g id="text_12">
      <!-- 4 -->
      <g transform="translate(14.798438 51.96125) rotate(-90) scale(0.1 -0.1)">
       <use xlink:href="#DejaVuSans-34"/>
      </g>
     </g>
    </g>
    <g id="ytick_3">
     <g id="line2d_13">
      <g>
       <use xlink:href="#mcc2f342986" x="23.878125" y="76.5" style="stroke: #000000; stroke-width: 0.8"/>
      </g>
     </g>
     <g id="text_13">
      <!-- 6 -->
      <g transform="translate(14.798438 79.68125) rotate(-90) scale(0.1 -0.1)">
       <defs>
        <path id="DejaVuSans-36" d="M 2113 2584 
Q 1688 2584 1439 2293 
Q 1191 2003 1191 1497 
Q 1191 994 1439 701 
Q 1688 409 2113 409 
Q 2538 409 2786 701 
Q 3034 994 3034 1497 
Q 3034 2003 2786 2293 
Q 2538 2584 2113 2584 
z
M 3366 4563 
L 3366 3988 
Q 3128 4100 2886 4159 
Q 2644 4219 2406 4219 
Q 1781 4219 1451 3797 
Q 1122 3375 1075 2522 
Q 1259 2794 1537 2939 
Q 1816 3084 2150 3084 
Q 2853 3084 3261 2657 
Q 3669 2231 3669 1497 
Q 3669 778 3244 343 
Q 2819 -91 2113 -91 
Q 1303 -91 875 529 
Q 447 1150 447 2328 
Q 447 3434 972 4092 
Q 1497 4750 2381 4750 
Q 2619 4750 2861 4703 
Q 3103 4656 3366 4563 
z
" transform="scale(0.015625)"/>
       </defs>
       <use xlink:href="#DejaVuSans-36"/>
      </g>
     </g>
    </g>
    <g id="ytick_4">
     <g id="line2d_14">
      <g>
       <use xlink:href="#mcc2f342986" x="23.878125" y="104.22" style="stroke: #000000; stroke-width: 0.8"/>
      </g>
     </g>
     <g id="text_14">
      <!-- 3 -->
      <g transform="translate(14.798438 107.40125) rotate(-90) scale(0.1 -0.1)">
       <use xlink:href="#DejaVuSans-33"/>
      </g>
     </g>
    </g>
    <g id="ytick_5">
     <g id="line2d_15">
      <g>
       <use xlink:href="#mcc2f342986" x="23.878125" y="131.94" style="stroke: #000000; stroke-width: 0.8"/>
      </g>
     </g>
     <g id="text_15">
      <!-- 0 -->
      <g transform="translate(14.798438 135.12125) rotate(-90) scale(0.1 -0.1)">
       <use xlink:href="#DejaVuSans-30"/>
      </g>
     </g>
    </g>
    <g id="ytick_6">
     <g id="line2d_16">
      <g>
       <use xlink:href="#mcc2f342986" x="23.878125" y="159.66" style="stroke: #000000; stroke-width: 0.8"/>
      </g>
     </g>
     <g id="text_16">
      <!-- 2 -->
      <g transform="translate(14.798438 162.84125) rotate(-90) scale(0.1 -0.1)">
       <use xlink:href="#DejaVuSans-32"/>
      </g>
     </g>
    </g>
    <g id="ytick_7">
     <g id="line2d_17">
      <g>
       <use xlink:href="#mcc2f342986" x="23.878125" y="187.38" style="stroke: #000000; stroke-width: 0.8"/>
      </g>
     </g>
     <g id="text_17">
      <!-- 1 -->
      <g transform="translate(14.798438 190.56125) rotate(-90) scale(0.1 -0.1)">
       <use xlink:href="#DejaVuSans-31"/>
      </g>
     </g>
    </g>
    <g id="ytick_8">
     <g id="line2d_18">
      <g>
       <use xlink:href="#mcc2f342986" x="23.878125" y="215.1" style="stroke: #000000; stroke-width: 0.8"/>
      </g>
     </g>
     <g id="text_18">
      <!-- 7 -->
      <g transform="translate(14.798438 218.28125) rotate(-90) scale(0.1 -0.1)">
       <defs>
        <path id="DejaVuSans-37" d="M 525 4666 
L 3525 4666 
L 3525 4397 
L 1831 0 
L 1172 0 
L 2766 4134 
L 525 4134 
L 525 4666 
z
" transform="scale(0.015625)"/>
       </defs>
       <use xlink:href="#DejaVuSans-37"/>
      </g>
     </g>
    </g>
   </g>
   <g id="text_19">
    <!-- 1 -->
    <g style="fill: #ffffff" transform="translate(34.646875 23.819375) scale(0.1 -0.1)">
     <use xlink:href="#DejaVuSans-31"/>
    </g>
   </g>
   <g id="text_20">
    <!-- 1 -->
    <g style="fill: #ffffff" transform="translate(62.546875 23.819375) scale(0.1 -0.1)">
     <use xlink:href="#DejaVuSans-31"/>
    </g>
   </g>
   <g id="text_21">
    <!-- 1 -->
    <g style="fill: #ffffff" transform="translate(90.446875 23.819375) scale(0.1 -0.1)">
     <use xlink:href="#DejaVuSans-31"/>
    </g>
   </g>
   <g id="text_22">
    <!-- 1 -->
    <g style="fill: #ffffff" transform="translate(118.346875 23.819375) scale(0.1 -0.1)">
     <use xlink:href="#DejaVuSans-31"/>
    </g>
   </g>
   <g id="text_23">
    <!-- 3 -->
    <g style="fill: #ffffff" transform="translate(146.246875 23.819375) scale(0.1 -0.1)">
     <use xlink:href="#DejaVuSans-33"/>
    </g>
   </g>
   <g id="text_24">
    <!-- 3 -->
    <g style="fill: #ffffff" transform="translate(174.146875 23.819375) scale(0.1 -0.1)">
     <use xlink:href="#DejaVuSans-33"/>
    </g>
   </g>
   <g id="text_25">
    <!-- 1 -->
    <g style="fill: #ffffff" transform="translate(202.046875 23.819375) scale(0.1 -0.1)">
     <use xlink:href="#DejaVuSans-31"/>
    </g>
   </g>
   <g id="text_26">
    <!-- 1 -->
    <g style="fill: #ffffff" transform="translate(229.946875 23.819375) scale(0.1 -0.1)">
     <use xlink:href="#DejaVuSans-31"/>
    </g>
   </g>
   <g id="text_27">
    <!-- 1 -->
    <g style="fill: #ffffff" transform="translate(257.846875 23.819375) scale(0.1 -0.1)">
     <use xlink:href="#DejaVuSans-31"/>
    </g>
   </g>
   <g id="text_28">
    <!-- 1 -->
    <g style="fill: #ffffff" transform="translate(285.746875 23.819375) scale(0.1 -0.1)">
     <use xlink:href="#DejaVuSans-31"/>
    </g>
   </g>
   <g id="text_29">
    <!-- 2 -->
    <g style="fill: #ffffff" transform="translate(34.646875 51.539375) scale(0.1 -0.1)">
     <use xlink:href="#DejaVuSans-32"/>
    </g>
   </g>
   <g id="text_30">
    <!-- 2 -->
    <g style="fill: #ffffff" transform="translate(62.546875 51.539375) scale(0.1 -0.1)">
     <use xlink:href="#DejaVuSans-32"/>
    </g>
   </g>
   <g id="text_31">
    <!-- 2 -->
    <g style="fill: #ffffff" transform="translate(90.446875 51.539375) scale(0.1 -0.1)">
     <use xlink:href="#DejaVuSans-32"/>
    </g>
   </g>
   <g id="text_32">
    <!-- 2 -->
    <g style="fill: #ffffff" transform="translate(118.346875 51.539375) scale(0.1 -0.1)">
     <use xlink:href="#DejaVuSans-32"/>
    </g>
   </g>
   <g id="text_33">
    <!-- 2 -->
    <g style="fill: #ffffff" transform="translate(146.246875 51.539375) scale(0.1 -0.1)">
     <use xlink:href="#DejaVuSans-32"/>
    </g>
   </g>
   <g id="text_34">
    <!-- 2 -->
    <g style="fill: #ffffff" transform="translate(174.146875 51.539375) scale(0.1 -0.1)">
     <use xlink:href="#DejaVuSans-32"/>
    </g>
   </g>
   <g id="text_35">
    <!-- 2 -->
    <g style="fill: #ffffff" transform="translate(202.046875 51.539375) scale(0.1 -0.1)">
     <use xlink:href="#DejaVuSans-32"/>
    </g>
   </g>
   <g id="text_36">
    <!-- 2 -->
    <g style="fill: #ffffff" transform="translate(229.946875 51.539375) scale(0.1 -0.1)">
     <use xlink:href="#DejaVuSans-32"/>
    </g>
   </g>
   <g id="text_37">
    <!-- 2 -->
    <g style="fill: #ffffff" transform="translate(257.846875 51.539375) scale(0.1 -0.1)">
     <use xlink:href="#DejaVuSans-32"/>
    </g>
   </g>
   <g id="text_38">
    <!-- 2 -->
    <g style="fill: #ffffff" transform="translate(285.746875 51.539375) scale(0.1 -0.1)">
     <use xlink:href="#DejaVuSans-32"/>
    </g>
   </g>
   <g id="text_39">
    <!-- 3 -->
    <g style="fill: #ffffff" transform="translate(34.646875 79.259375) scale(0.1 -0.1)">
     <use xlink:href="#DejaVuSans-33"/>
    </g>
   </g>
   <g id="text_40">
    <!-- 3 -->
    <g style="fill: #ffffff" transform="translate(62.546875 79.259375) scale(0.1 -0.1)">
     <use xlink:href="#DejaVuSans-33"/>
    </g>
   </g>
   <g id="text_41">
    <!-- 3 -->
    <g style="fill: #ffffff" transform="translate(90.446875 79.259375) scale(0.1 -0.1)">
     <use xlink:href="#DejaVuSans-33"/>
    </g>
   </g>
   <g id="text_42">
    <!-- 3 -->
    <g style="fill: #ffffff" transform="translate(118.346875 79.259375) scale(0.1 -0.1)">
     <use xlink:href="#DejaVuSans-33"/>
    </g>
   </g>
   <g id="text_43">
    <!-- 1 -->
    <g style="fill: #ffffff" transform="translate(146.246875 79.259375) scale(0.1 -0.1)">
     <use xlink:href="#DejaVuSans-31"/>
    </g>
   </g>
   <g id="text_44">
    <!-- 1 -->
    <g style="fill: #ffffff" transform="translate(174.146875 79.259375) scale(0.1 -0.1)">
     <use xlink:href="#DejaVuSans-31"/>
    </g>
   </g>
   <g id="text_45">
    <!-- 3 -->
    <g style="fill: #ffffff" transform="translate(202.046875 79.259375) scale(0.1 -0.1)">
     <use xlink:href="#DejaVuSans-33"/>
    </g>
   </g>
   <g id="text_46">
    <!-- 3 -->
    <g style="fill: #ffffff" transform="translate(229.946875 79.259375) scale(0.1 -0.1)">
     <use xlink:href="#DejaVuSans-33"/>
    </g>
   </g>
   <g id="text_47">
    <!-- 3 -->
    <g style="fill: #ffffff" transform="translate(257.846875 79.259375) scale(0.1 -0.1)">
     <use xlink:href="#DejaVuSans-33"/>
    </g>
   </g>
   <g id="text_48">
    <!-- 3 -->
    <g style="fill: #ffffff" transform="translate(285.746875 79.259375) scale(0.1 -0.1)">
     <use xlink:href="#DejaVuSans-33"/>
    </g>
   </g>
   <g id="text_49">
    <!-- 4 -->
    <g style="fill: #ffffff" transform="translate(34.646875 106.979375) scale(0.1 -0.1)">
     <use xlink:href="#DejaVuSans-34"/>
    </g>
   </g>
   <g id="text_50">
    <!-- 4 -->
    <g style="fill: #ffffff" transform="translate(62.546875 106.979375) scale(0.1 -0.1)">
     <use xlink:href="#DejaVuSans-34"/>
    </g>
   </g>
   <g id="text_51">
    <!-- 4 -->
    <g style="fill: #ffffff" transform="translate(90.446875 106.979375) scale(0.1 -0.1)">
     <use xlink:href="#DejaVuSans-34"/>
    </g>
   </g>
   <g id="text_52">
    <!-- 4 -->
    <g style="fill: #ffffff" transform="translate(118.346875 106.979375) scale(0.1 -0.1)">
     <use xlink:href="#DejaVuSans-34"/>
    </g>
   </g>
   <g id="text_53">
    <!-- 4 -->
    <g style="fill: #ffffff" transform="translate(146.246875 106.979375) scale(0.1 -0.1)">
     <use xlink:href="#DejaVuSans-34"/>
    </g>
   </g>
   <g id="text_54">
    <!-- 4 -->
    <g style="fill: #ffffff" transform="translate(174.146875 106.979375) scale(0.1 -0.1)">
     <use xlink:href="#DejaVuSans-34"/>
    </g>
   </g>
   <g id="text_55">
    <!-- 4 -->
    <g style="fill: #ffffff" transform="translate(202.046875 106.979375) scale(0.1 -0.1)">
     <use xlink:href="#DejaVuSans-34"/>
    </g>
   </g>
   <g id="text_56">
    <!-- 4 -->
    <g style="fill: #ffffff" transform="translate(229.946875 106.979375) scale(0.1 -0.1)">
     <use xlink:href="#DejaVuSans-34"/>
    </g>
   </g>
   <g id="text_57">
    <!-- 4 -->
    <g style="fill: #ffffff" transform="translate(257.846875 106.979375) scale(0.1 -0.1)">
     <use xlink:href="#DejaVuSans-34"/>
    </g>
   </g>
   <g id="text_58">
    <!-- 4 -->
    <g style="fill: #ffffff" transform="translate(285.746875 106.979375) scale(0.1 -0.1)">
     <use xlink:href="#DejaVuSans-34"/>
    </g>
   </g>
   <g id="text_59">
    <!-- 5 -->
    <g style="fill: #262626" transform="translate(34.646875 134.699375) scale(0.1 -0.1)">
     <use xlink:href="#DejaVuSans-35"/>
    </g>
   </g>
   <g id="text_60">
    <!-- 5 -->
    <g style="fill: #262626" transform="translate(62.546875 134.699375) scale(0.1 -0.1)">
     <use xlink:href="#DejaVuSans-35"/>
    </g>
   </g>
   <g id="text_61">
    <!-- 5 -->
    <g style="fill: #262626" transform="translate(90.446875 134.699375) scale(0.1 -0.1)">
     <use xlink:href="#DejaVuSans-35"/>
    </g>
   </g>
   <g id="text_62">
    <!-- 5 -->
    <g style="fill: #262626" transform="translate(118.346875 134.699375) scale(0.1 -0.1)">
     <use xlink:href="#DejaVuSans-35"/>
    </g>
   </g>
   <g id="text_63">
    <!-- 5 -->
    <g style="fill: #262626" transform="translate(146.246875 134.699375) scale(0.1 -0.1)">
     <use xlink:href="#DejaVuSans-35"/>
    </g>
   </g>
   <g id="text_64">
    <!-- 5 -->
    <g style="fill: #262626" transform="translate(174.146875 134.699375) scale(0.1 -0.1)">
     <use xlink:href="#DejaVuSans-35"/>
    </g>
   </g>
   <g id="text_65">
    <!-- 5 -->
    <g style="fill: #262626" transform="translate(202.046875 134.699375) scale(0.1 -0.1)">
     <use xlink:href="#DejaVuSans-35"/>
    </g>
   </g>
   <g id="text_66">
    <!-- 5 -->
    <g style="fill: #262626" transform="translate(229.946875 134.699375) scale(0.1 -0.1)">
     <use xlink:href="#DejaVuSans-35"/>
    </g>
   </g>
   <g id="text_67">
    <!-- 5 -->
    <g style="fill: #262626" transform="translate(257.846875 134.699375) scale(0.1 -0.1)">
     <use xlink:href="#DejaVuSans-35"/>
    </g>
   </g>
   <g id="text_68">
    <!-- 5 -->
    <g style="fill: #262626" transform="translate(285.746875 134.699375) scale(0.1 -0.1)">
     <use xlink:href="#DejaVuSans-35"/>
    </g>
   </g>
   <g id="text_69">
    <!-- 6 -->
    <g style="fill: #262626" transform="translate(34.646875 162.419375) scale(0.1 -0.1)">
     <use xlink:href="#DejaVuSans-36"/>
    </g>
   </g>
   <g id="text_70">
    <!-- 6 -->
    <g style="fill: #262626" transform="translate(62.546875 162.419375) scale(0.1 -0.1)">
     <use xlink:href="#DejaVuSans-36"/>
    </g>
   </g>
   <g id="text_71">
    <!-- 6 -->
    <g style="fill: #262626" transform="translate(90.446875 162.419375) scale(0.1 -0.1)">
     <use xlink:href="#DejaVuSans-36"/>
    </g>
   </g>
   <g id="text_72">
    <!-- 6 -->
    <g style="fill: #262626" transform="translate(118.346875 162.419375) scale(0.1 -0.1)">
     <use xlink:href="#DejaVuSans-36"/>
    </g>
   </g>
   <g id="text_73">
    <!-- 6 -->
    <g style="fill: #262626" transform="translate(146.246875 162.419375) scale(0.1 -0.1)">
     <use xlink:href="#DejaVuSans-36"/>
    </g>
   </g>
   <g id="text_74">
    <!-- 6 -->
    <g style="fill: #262626" transform="translate(174.146875 162.419375) scale(0.1 -0.1)">
     <use xlink:href="#DejaVuSans-36"/>
    </g>
   </g>
   <g id="text_75">
    <!-- 6 -->
    <g style="fill: #262626" transform="translate(202.046875 162.419375) scale(0.1 -0.1)">
     <use xlink:href="#DejaVuSans-36"/>
    </g>
   </g>
   <g id="text_76">
    <!-- 6 -->
    <g style="fill: #262626" transform="translate(229.946875 162.419375) scale(0.1 -0.1)">
     <use xlink:href="#DejaVuSans-36"/>
    </g>
   </g>
   <g id="text_77">
    <!-- 6 -->
    <g style="fill: #262626" transform="translate(257.846875 162.419375) scale(0.1 -0.1)">
     <use xlink:href="#DejaVuSans-36"/>
    </g>
   </g>
   <g id="text_78">
    <!-- 6 -->
    <g style="fill: #262626" transform="translate(285.746875 162.419375) scale(0.1 -0.1)">
     <use xlink:href="#DejaVuSans-36"/>
    </g>
   </g>
   <g id="text_79">
    <!-- 7 -->
    <g style="fill: #262626" transform="translate(34.646875 190.139375) scale(0.1 -0.1)">
     <use xlink:href="#DejaVuSans-37"/>
    </g>
   </g>
   <g id="text_80">
    <!-- 7 -->
    <g style="fill: #262626" transform="translate(62.546875 190.139375) scale(0.1 -0.1)">
     <use xlink:href="#DejaVuSans-37"/>
    </g>
   </g>
   <g id="text_81">
    <!-- 7 -->
    <g style="fill: #262626" transform="translate(90.446875 190.139375) scale(0.1 -0.1)">
     <use xlink:href="#DejaVuSans-37"/>
    </g>
   </g>
   <g id="text_82">
    <!-- 7 -->
    <g style="fill: #262626" transform="translate(118.346875 190.139375) scale(0.1 -0.1)">
     <use xlink:href="#DejaVuSans-37"/>
    </g>
   </g>
   <g id="text_83">
    <!-- 7 -->
    <g style="fill: #262626" transform="translate(146.246875 190.139375) scale(0.1 -0.1)">
     <use xlink:href="#DejaVuSans-37"/>
    </g>
   </g>
   <g id="text_84">
    <!-- 7 -->
    <g style="fill: #262626" transform="translate(174.146875 190.139375) scale(0.1 -0.1)">
     <use xlink:href="#DejaVuSans-37"/>
    </g>
   </g>
   <g id="text_85">
    <!-- 7 -->
    <g style="fill: #262626" transform="translate(202.046875 190.139375) scale(0.1 -0.1)">
     <use xlink:href="#DejaVuSans-37"/>
    </g>
   </g>
   <g id="text_86">
    <!-- 7 -->
    <g style="fill: #262626" transform="translate(229.946875 190.139375) scale(0.1 -0.1)">
     <use xlink:href="#DejaVuSans-37"/>
    </g>
   </g>
   <g id="text_87">
    <!-- 7 -->
    <g style="fill: #262626" transform="translate(257.846875 190.139375) scale(0.1 -0.1)">
     <use xlink:href="#DejaVuSans-37"/>
    </g>
   </g>
   <g id="text_88">
    <!-- 7 -->
    <g style="fill: #262626" transform="translate(285.746875 190.139375) scale(0.1 -0.1)">
     <use xlink:href="#DejaVuSans-37"/>
    </g>
   </g>
   <g id="text_89">
    <!-- 8 -->
    <g style="fill: #262626" transform="translate(34.646875 217.859375) scale(0.1 -0.1)">
     <defs>
      <path id="DejaVuSans-38" d="M 2034 2216 
Q 1584 2216 1326 1975 
Q 1069 1734 1069 1313 
Q 1069 891 1326 650 
Q 1584 409 2034 409 
Q 2484 409 2743 651 
Q 3003 894 3003 1313 
Q 3003 1734 2745 1975 
Q 2488 2216 2034 2216 
z
M 1403 2484 
Q 997 2584 770 2862 
Q 544 3141 544 3541 
Q 544 4100 942 4425 
Q 1341 4750 2034 4750 
Q 2731 4750 3128 4425 
Q 3525 4100 3525 3541 
Q 3525 3141 3298 2862 
Q 3072 2584 2669 2484 
Q 3125 2378 3379 2068 
Q 3634 1759 3634 1313 
Q 3634 634 3220 271 
Q 2806 -91 2034 -91 
Q 1263 -91 848 271 
Q 434 634 434 1313 
Q 434 1759 690 2068 
Q 947 2378 1403 2484 
z
M 1172 3481 
Q 1172 3119 1398 2916 
Q 1625 2713 2034 2713 
Q 2441 2713 2670 2916 
Q 2900 3119 2900 3481 
Q 2900 3844 2670 4047 
Q 2441 4250 2034 4250 
Q 1625 4250 1398 4047 
Q 1172 3844 1172 3481 
z
" transform="scale(0.015625)"/>
     </defs>
     <use xlink:href="#DejaVuSans-38"/>
    </g>
   </g>
   <g id="text_90">
    <!-- 8 -->
    <g style="fill: #262626" transform="translate(62.546875 217.859375) scale(0.1 -0.1)">
     <use xlink:href="#DejaVuSans-38"/>
    </g>
   </g>
   <g id="text_91">
    <!-- 8 -->
    <g style="fill: #262626" transform="translate(90.446875 217.859375) scale(0.1 -0.1)">
     <use xlink:href="#DejaVuSans-38"/>
    </g>
   </g>
   <g id="text_92">
    <!-- 8 -->
    <g style="fill: #262626" transform="translate(118.346875 217.859375) scale(0.1 -0.1)">
     <use xlink:href="#DejaVuSans-38"/>
    </g>
   </g>
   <g id="text_93">
    <!-- 8 -->
    <g style="fill: #262626" transform="translate(146.246875 217.859375) scale(0.1 -0.1)">
     <use xlink:href="#DejaVuSans-38"/>
    </g>
   </g>
   <g id="text_94">
    <!-- 8 -->
    <g style="fill: #262626" transform="translate(174.146875 217.859375) scale(0.1 -0.1)">
     <use xlink:href="#DejaVuSans-38"/>
    </g>
   </g>
   <g id="text_95">
    <!-- 8 -->
    <g style="fill: #262626" transform="translate(202.046875 217.859375) scale(0.1 -0.1)">
     <use xlink:href="#DejaVuSans-38"/>
    </g>
   </g>
   <g id="text_96">
    <!-- 8 -->
    <g style="fill: #262626" transform="translate(229.946875 217.859375) scale(0.1 -0.1)">
     <use xlink:href="#DejaVuSans-38"/>
    </g>
   </g>
   <g id="text_97">
    <!-- 8 -->
    <g style="fill: #262626" transform="translate(257.846875 217.859375) scale(0.1 -0.1)">
     <use xlink:href="#DejaVuSans-38"/>
    </g>
   </g>
   <g id="text_98">
    <!-- 8 -->
    <g style="fill: #262626" transform="translate(285.746875 217.859375) scale(0.1 -0.1)">
     <use xlink:href="#DejaVuSans-38"/>
    </g>
   </g>
  </g>
 </g>
 <defs>
  <clipPath id="p13e2805248">
   <rect x="23.878125" y="7.2" width="279" height="221.76"/>
  </clipPath>
 </defs>
</svg>
